<svg width="1024" height="1024" xmlns="http://www.w3.org/2000/svg">

 <g>
  <title>Layer 1</title>
  <path id="svg_1" d="m483.233,0l54.097,0c0.332,0.06922 0.665,0.13844 0.998,0.20766c27.97,1.68119 55.743,5.04177 83.101,11.33714c126.12,28.16 237.103,102.5732 311.045,208.5522c42.068,60.998 70.676,130.25 83.916,203.155c2.33,13.465 4.11,27.022 5.31,40.634c0.37,4.112 1.5,22.495 2.3,25.214l0,47.239c-1.8,8.815 -1.59,21.254 -2.62,30.623c-2.19,20.133 -5.69,40.103 -10.46,59.786c-28.594,124.047 -102.363,232.998 -206.922,305.614c-61.362,42.025 -130.895,70.638 -204.063,83.978c-13.1,2.37 -26.292,4.19 -39.543,5.47c-4.35,0.39 -23.171,1.47 -26.072,2.19l-46.752,0c-6.249,-1.68 -21.062,-1.61 -28.279,-2.45c-89.243,-10.38 -177.272,-43.706 -249.82,-96.929c-99.629,-72.992 -169.5672,-179.49 -196.9597,-299.92c-5.25095,-23.671 -9.14044,-46.572 -10.64914,-70.784c-0.39674,-6.367 -0.79209,-14.458 -1.77995,-20.676l-0.08021,-0.479l0,-43.681c0.60723,-2.231 1.77449,-19.579 2.02736,-22.846c1.12584,-14.543 2.66216,-27.017 5.23237,-41.375c13.04817,-74.191 42.14317,-144.636 85.25107,-206.411c71.9372,-102.338 178.6492,-175.0088 300.2262,-204.453c20.71,-4.84271 41.661,-8.58907 62.766,-11.22348c8.086,-1.01521 19.958,-1.40369 27.252,-2.68404l0.478,-0.08848z" fill="#B3B3B3"/>
  <path id="svg_2" d="m506.925,10.1827c277.219,-2.8029 504.235,219.6293 507.085,496.8463c2.85,277.218 -219.541,504.271 -496.759,507.171c-277.285,2.9 -504.4071,-219.559 -507.25891,-496.845c-2.85178,-277.286 219.64691,-504.3687 496.93291,-507.1723z" fill="#898889"/>
  <path id="svg_3" d="m43.6973,343.732c23.8438,-65.54 61.0287,-125.419 109.2027,-175.851c91.118,-95.3401 216.327,-150.6547 348.169,-153.8132c131.811,-2.8334 259.336,46.8861 354.444,138.1922c16.764,16.655 30.348,30.88 45.252,49.603c70.26,88.091 108.745,197.309 109.235,309.986c0.15,37.88 -4.22,69.31 -11.621,106.071c-0.311,1.784 -0.577,3.625 -1.106,5.348c-5.465,20.484 -10.688,41.06 -18.024,60.972c-0.766,2.08 -3.721,10.19 -4.758,11.814c-2.735,8.4 -6.931,17.02 -10.631,25.066c-26.302,56.67 -62.962,107.926 -108.092,151.129c-8.1,7.713 -20.078,18.833 -29.248,25.282l-151.092,0.071l-298.12,-0.055l-122.727,0.073l-33.812,-0.082c-5.002,-0.018 -15.598,-0.287 -20.207,0.382l-1.628,-0.229c-0.42,-0.05 -1.558,-0.22 -1.845,-0.442c-62.521,-48.463 -120.4476,-128.983 -147.5744,-201.169c-1.929,-2.531 -5.525,-13.167 -6.7163,-16.649c-8.1557,-23.834 -15.3636,-48.15 -19.7185,-72.993c-1.971,-6.79 -6.1005,-35.855 -6.5634,-42.907c-1.9618,-6.729 1.693,-9.942 -1.294,-17.559c-2.042,-11.135 -1.2348,-35.452 -1.2848,-47.986c0.0037,-1.681 0.4612,-3.997 0.7739,-5.72c1.2444,-6.858 -0.3833,-12.66 0.6893,-19.931c0.9742,-9.248 3.1065,-32.874 5.3775,-41.414c4.334,-26.053 10.07,-47.807 17.8244,-72.8c0.6132,-2.281 1.9711,-5.921 2.7601,-8.266c0.7413,-2.246 1.245,-4.005 2.3345,-6.123z" fill="#B3B3B3"/>
  <path id="svg_4" d="m43.6973,343.732c23.8438,-65.54 61.0287,-125.419 109.2027,-175.851c91.118,-95.3401 216.327,-150.6547 348.169,-153.8132c131.811,-2.8334 259.336,46.8861 354.444,138.1922l-52.205,52.189c3.171,3.248 6.503,6.563 9.611,9.85c-19.279,19.049 -41.696,40.398 -60.109,59.914l38.768,38.657c6.252,6.237 15.321,14.806 21.049,21.276c-4.902,5.049 -10.025,10.502 -15.045,15.385l-60.225,-60.043l-41.522,41.79c-3.401,3.403 -15.281,15.518 -18.326,17.602c-0.432,-0.18 -1.356,-0.539 -1.738,-0.744c-6.546,6.046 -38.338,39.248 -42.656,41.364c-67.508,-66.748 -176.291,-66.301 -243.249,0.998c-66.958,67.299 -66.851,176.084 0.239,243.251c-19.66,21.159 -41.508,41.144 -61.423,62.238l-61.617,-0.022l-14.521,0.029l-203.0294,0.086c-1.929,-2.531 -5.525,-13.167 -6.7163,-16.649c-8.1557,-23.834 -15.3636,-48.15 -19.7185,-72.993c-1.971,-6.79 -6.1005,-35.855 -6.5634,-42.907c-1.9618,-6.729 1.693,-9.942 -1.294,-17.559c-2.042,-11.135 -1.2348,-35.452 -1.2848,-47.986c0.0037,-1.681 0.4612,-3.997 0.7739,-5.72c1.2444,-6.858 -0.3833,-12.66 0.6893,-19.931c0.9742,-9.248 3.1065,-32.874 5.3775,-41.414c4.334,-26.053 10.07,-47.807 17.8244,-72.8c0.6132,-2.281 1.9711,-5.921 2.7601,-8.266c0.7413,-2.246 1.245,-4.005 2.3345,-6.123z" fill="#EBEBEB"/>
  <path id="svg_5" d="m38.6027,358.121c57.3098,-8.603 120.3963,9.013 166.8183,43.31c17.828,13.175 33.656,28.86 46.993,46.567c3.902,5.2 10.935,16.529 14.322,20.457c5.844,11.157 11.377,21.829 15.728,33.688c15.081,42.112 15.818,88.029 2.095,130.604c-4.916,15.859 -11.744,31.061 -20.334,45.27c-2.599,4.253 -9.946,14.482 -11.681,17.977l-203.0294,0.086c-1.929,-2.531 -5.525,-13.167 -6.7163,-16.649c-8.1557,-23.834 -15.3636,-48.15 -19.7185,-72.993c-1.971,-6.79 -6.1005,-35.855 -6.5634,-42.907c-1.9618,-6.729 1.693,-9.942 -1.294,-17.559c-2.042,-11.135 -1.2348,-35.452 -1.2848,-47.986c0.0037,-1.681 0.4612,-3.997 0.7739,-5.72c1.2444,-6.858 -0.3833,-12.66 0.6893,-19.931c0.9742,-9.248 3.1065,-32.874 5.3775,-41.414c4.334,-26.053 10.07,-47.807 17.8244,-72.8z" fill="#EBEBEB"/>
  <path id="svg_6" d="m21.407,496.775c2.8369,-7.375 5.3818,-13.648 9.5204,-20.406c11.6896,-19.436 30.7571,-33.305 52.8488,-38.439c29.5748,-6.87 49.5338,1.354 73.8368,16.361c4.178,3.697 9.367,8.452 12.776,12.888c9.291,12.092 15.195,30.612 16.06,45.682c1.378,23.692 -6.877,46.936 -22.89,64.451c-15.949,17.645 -38.331,28.126 -62.097,29.078c-27.9325,1.136 -54.1323,-11.286 -71.1255,-33.361c-1.3554,-3.471 -3.8193,-7.619 -5.3277,-11.367c-1.8401,-4.571 -3.6193,-9.432 -5.6907,-13.881c-0.5818,-1.25 -2.6936,-1.504 -4.0957,-1.809c-2.042,-11.135 -1.2348,-35.452 -1.2848,-47.986c2.4948,-0.49 4.9571,-0.837 7.4694,-1.211z" fill="#EBEBEB"/>
  <path id="svg_7" d="m20.7783,430.921l0.7114,0.2c7.1172,-5.894 16.483,-12.923 24.694,-17.118c18.5823,-9.494 41.9558,-14.141 62.6853,-12.099c65.049,6.406 117.163,68.472 110.681,133.731c-3.172,30.868 -18.494,59.206 -42.586,78.763c-23.686,19.45 -54.177,28.602 -84.6597,25.41c-29.7346,-2.996 -47.8868,-13.64 -69.2245,-33.37c-1.971,-6.79 -6.1005,-35.855 -6.5634,-42.907c-1.9618,-6.729 1.693,-9.942 -1.294,-17.559c1.4021,0.305 3.5139,0.559 4.0957,1.809c2.0714,4.449 3.8506,9.31 5.6907,13.881c1.5084,3.748 3.9723,7.896 5.3277,11.367c16.9932,22.075 43.193,34.497 71.1255,33.361c23.766,-0.952 46.148,-11.433 62.097,-29.078c16.013,-17.515 24.268,-40.759 22.89,-64.451c-0.865,-15.07 -6.769,-33.59 -16.06,-45.682c-3.409,-4.436 -8.598,-9.191 -12.776,-12.888c-24.303,-15.007 -44.262,-23.231 -73.8368,-16.361c-22.0917,5.134 -41.1592,19.003 -52.8488,38.439c-4.1386,6.758 -6.6835,13.031 -9.5204,20.406c-2.5123,0.374 -4.9746,0.721 -7.4694,1.211c0.0037,-1.681 0.4612,-3.997 0.7739,-5.72c1.2444,-6.858 -0.3833,-12.66 0.6893,-19.931c0.9742,-9.248 3.1065,-32.874 5.3775,-41.414z" fill="#888CBE"/>
  <path id="svg_8" d="m16.1539,488.188c1.3446,-3.707 2.8974,-7.335 4.651,-10.867c10.4995,-20.946 28.9229,-36.837 51.1837,-44.148c21.8703,-7.152 45.7174,-4.917 66.0114,5.65c6.098,3.175 17.376,8.661 19.613,15.468c-24.303,-15.007 -44.262,-23.231 -73.8368,-16.361c-22.0917,5.134 -41.1592,19.003 -52.8488,38.439c-4.1386,6.758 -6.6835,13.031 -9.5204,20.406c-2.5123,0.374 -4.9746,0.721 -7.4694,1.211c0.0037,-1.681 0.4612,-3.997 0.7739,-5.72c1.2444,-6.858 -0.3833,-12.66 0.6893,-19.931c0.5479,4.352 -0.0386,10.047 0.7531,15.853z" fill="#B3B3B3"/>
  <path id="svg_9" d="m15.2224,545.972c1.4021,0.305 3.5139,0.559 4.0957,1.809c2.0714,4.449 3.8506,9.31 5.6907,13.881c1.5084,3.748 3.9723,7.896 5.3277,11.367c-4.6308,-2.75 -10.3909,-15.639 -13.4803,-20.949c0.0449,3.465 0.274,8.154 -0.3398,11.451c-1.9618,-6.729 1.693,-9.942 -1.294,-17.559z" fill="#B3B3B3"/>
  <path id="svg_10" d="m247.773,571.755c9.676,-2.032 19.152,4.217 21.095,13.911c1.943,9.694 -4.393,19.113 -14.105,20.966c-9.586,1.83 -18.855,-4.406 -20.773,-13.975c-1.918,-9.569 4.232,-18.896 13.783,-20.902z" fill="#888CBE"/>
  <path id="svg_11" d="m797.613,198.553l5.695,5.896c3.171,3.248 6.503,6.563 9.611,9.85c-19.279,19.049 -41.696,40.398 -60.109,59.914l38.768,38.657c6.252,6.237 15.321,14.806 21.049,21.276c-4.902,5.049 -10.025,10.502 -15.045,15.385l-60.225,-60.043l-41.522,41.79c-3.401,3.403 -15.281,15.518 -18.326,17.602c-0.432,-0.18 -1.356,-0.539 -1.738,-0.744c-4.352,-4.868 -9.081,-9.306 -13.774,-13.846c19.712,-20.29 39.721,-40.29 60.02,-59.993c-19.913,-20.234 -39.987,-40.308 -60.221,-60.222c5.101,-5.084 10.257,-10.111 15.469,-15.082c14.055,14.255 28.798,27.945 42.686,42.397c5.667,5.897 11.537,11.933 17.516,17.499l60.146,-60.336z" fill="#BF5E74"/>
  <path id="svg_12" d="m797.467,202.906c1.701,1.267 9.562,9 11.5,10.846c-4.796,6.113 -15.054,15.059 -20.882,21.012c-12.77,13.044 -25.915,26.886 -39.344,39.209l60.205,60.249c-3.676,3.75 -7.388,7.464 -11.135,11.143c-20.343,-19.105 -40.74,-40.052 -60.527,-59.812l-59.728,59.64c-1.787,-0.678 -9.708,-9.064 -11.534,-10.906c19.416,-19.892 40.268,-40.249 59.963,-60.017l-60.199,-60.289c3.912,-3.514 7.777,-7.328 11.576,-10.982c12.831,13.564 26.95,26.417 39.893,39.935c6.401,6.685 13.383,13.713 20.284,19.814c19.814,-20.109 39.79,-40.057 59.928,-59.842z" fill="#EB889E"/>
  <path id="svg_13" d="m43.6973,343.732c13.8802,-0.642 23.9765,-0.921 37.9413,0.153c54.0514,3.927 105.2364,25.816 145.4134,62.186c45.878,41.948 73.435,100.244 76.73,162.322c1.678,37.056 -9.013,78.591 -26.753,111.45c-1.761,3.263 -9.332,13.764 -9.964,16.122l-14.521,0.029c1.735,-3.495 9.082,-13.724 11.681,-17.977c8.59,-14.209 15.418,-29.411 20.334,-45.27c13.723,-42.575 12.986,-88.492 -2.095,-130.604c-4.351,-11.859 -9.884,-22.531 -15.728,-33.688c-3.387,-3.928 -10.42,-15.257 -14.322,-20.457c-13.337,-17.707 -29.165,-33.392 -46.993,-46.567c-46.422,-34.297 -109.5085,-51.913 -166.8183,-43.31c0.6132,-2.281 1.9711,-5.921 2.7601,-8.266c0.7413,-2.246 1.245,-4.005 2.3345,-6.123z" fill="#888CBE"/>
  <path id="svg_14" d="m41.3628,349.855c62.6842,-5.706 125.0682,13.717 173.4362,53.996c17.008,14.173 31.894,30.714 44.204,49.117c2.453,3.624 7.473,11.104 7.733,15.487c-3.387,-3.928 -10.42,-15.257 -14.322,-20.457c-13.337,-17.707 -29.165,-33.392 -46.993,-46.567c-46.422,-34.297 -109.5085,-51.913 -166.8183,-43.31c0.6132,-2.281 1.9711,-5.921 2.7601,-8.266z" fill="#B3B3B3"/>
  <path id="svg_15" d="m509.103,78.2014c47.869,-2.6861 88.879,33.8806 91.677,81.7436c2.797,47.862 -33.675,88.957 -81.531,91.866c-48.013,2.918 -89.273,-33.7 -92.079,-81.72c-2.807,-48.02 33.907,-89.1947 81.933,-91.8896z" fill="#2992A0"/>
  <path id="svg_16" d="m506.476,81.2287c46.305,-4.1398 87.186,30.0723 91.27,76.3823c4.085,46.311 -30.177,87.15 -76.492,91.179c-46.236,4.021 -86.991,-30.17 -91.069,-76.401c-4.077,-46.231 30.065,-87.0274 76.291,-91.1603z" fill="#56C1C9"/>
  <path id="svg_17" d="m508.63,95.6995c38.218,-2.9357 71.598,25.6255 74.608,63.8385c3.009,38.213 -25.488,71.648 -63.695,74.732c-38.311,3.092 -71.858,-25.501 -74.876,-63.818c-3.018,-38.318 25.639,-71.8087 63.963,-74.7525z" fill="#2992A0"/>
  <path id="svg_18" d="m506.256,98.7588c36.645,-4.2631 69.783,22.0512 73.933,58.7092c4.15,36.658 -22.266,69.714 -58.937,73.751c-36.511,4.02 -69.392,-22.257 -73.524,-58.755c-4.132,-36.498 22.043,-69.461 58.528,-73.7052z" fill="#EBEBEB"/>
  <path id="svg_19" d="m259.123,164.418c3.725,3.036 11.231,11.634 14.665,15.407l23.999,26.324l84.269,91.977c-7.976,2.372 -20.779,4.799 -29.223,6.686l-51.718,11.803c-32.62,7.992 -66.974,15.223 -99.841,22.726c6.083,-17.017 12.025,-36.164 17.783,-53.439l40.066,-121.484z" fill="#218A5F"/>
  <path id="svg_20" d="m260.433,170.321c4.842,3.218 27.96,29.721 33.124,35.355l83.513,90.798c-25.226,5.421 -50.524,11.947 -75.626,17.17c-29.941,7.755 -65.3,14.907 -95.708,21.714c3.727,-10.456 7.335,-22.737 10.897,-33.493l25.202,-76.034c5.945,-18.587 12.145,-37.092 18.598,-55.51z" fill="#64BE91"/>
  <path id="svg_21" d="m265.388,193.726c5.57,5.179 11.623,12.342 16.856,18.102l27.624,30.257l26.441,28.761c5.091,5.509 12.015,12.55 16.421,18.346c-5.548,1.474 -12.692,2.763 -18.478,4.094l-38.24,8.973c-3.708,0.67 -7.503,1.758 -11.198,2.566c-20.063,4.392 -40.095,9.968 -60.318,13.534c12.666,-42.001 27.745,-82.897 40.892,-124.633z" fill="#218A5F"/>
  <path id="svg_22" d="m266.42,199.279c4.637,3.579 19.184,20.428 23.968,25.64c19.198,20.761 38.279,41.629 57.241,62.605c-17.494,3.79 -34.938,7.809 -52.327,12.055l-66.782,15.369c2.542,-9.342 6.923,-20.785 9.889,-30.229c8.91,-28.373 19.588,-56.98 28.011,-85.44z" fill="#EBEBEB"/>
  <path id="svg_23" d="m282.232,401.771c10.378,-2.162 20.531,4.543 22.619,14.937c2.087,10.394 -4.69,20.499 -15.099,22.512c-10.304,1.992 -20.285,-4.702 -22.351,-14.991c-2.066,-10.289 4.557,-20.318 14.831,-22.458z" fill="#888CBE"/>
  <path id="svg_24" d="m283.11,406.223c7.867,-1.693 15.617,3.309 17.315,11.175c1.698,7.865 -3.299,15.619 -11.163,17.321c-7.872,1.705 -15.634,-3.297 -17.333,-11.17c-1.7,-7.873 3.308,-15.631 11.181,-17.326z" fill="#EBEBEB"/>
  <path id="svg_25" d="m326.29,133.758c4.616,-0.846 9.327,0.88 12.302,4.509c2.976,3.628 3.747,8.587 2.012,12.947c-1.734,4.36 -5.699,7.435 -10.354,8.029c-6.931,0.885 -13.307,-3.91 -14.38,-10.815c-1.073,-6.905 3.547,-13.409 10.42,-14.67z" fill="#888CBE"/>
  <path id="svg_26" d="m138.441,299.262c3.297,-0.553 6.422,1.658 6.997,4.951c0.576,3.293 -1.614,6.433 -4.903,7.03c-3.321,0.604 -6.497,-1.612 -7.078,-4.936c-0.582,-3.325 1.656,-6.486 4.984,-7.045z" fill="#888CBE"/>
  <path id="svg_27" d="m328.682,695.987l364.181,0.005l7.061,-0.017l274.567,0.079c-2.735,8.4 -6.931,17.02 -10.631,25.066c-26.302,56.67 -62.962,107.926 -108.092,151.129c-8.1,7.713 -20.078,18.833 -29.248,25.282l-151.092,0.071l-298.12,-0.055l-122.727,0.073l-33.812,-0.082c-5.002,-0.018 -15.598,-0.287 -20.207,0.382l-1.628,-0.229c-0.42,-0.05 -1.558,-0.22 -1.845,-0.442c-62.521,-48.463 -120.4476,-128.983 -147.5744,-201.169l203.0294,-0.086l14.521,-0.029l61.617,0.022z" fill="#0D0D0D"/>
  <path id="svg_28" d="m771.383,755.738l0.691,-0.017c9.393,-0.194 23.774,-0.187 30.752,6.989c7.382,7.579 6.284,18.472 6.249,28.144c-0.042,11.686 2.255,27.428 -6.864,36.611c-7.876,7.93 -22.893,6.609 -33.291,6.592l-21.17,-0.051l-38.833,0.019l0.008,-78.072c20.819,0.075 41.639,0.003 62.458,-0.215z" fill="#EBEBEB"/>
  <path id="svg_29" d="m767.02,768.269c9.57,-0.358 21.313,-1.515 27.356,7.295c0.596,4.633 0.227,9.734 0.693,14.099c4.099,38.443 -12.133,32.026 -43.452,31.812l-28.252,-0.043c-0.052,-17.646 -0.015,-35.293 0.11,-52.939c14.531,-0.123 28.996,0.102 43.545,-0.224z" fill="#0D0D0D"/>
  <path id="svg_30" d="m364.551,756.126c9.756,-0.714 21.558,-0.279 31.511,-0.263l52.952,0.046l-0.013,12.511l-56.397,-0.016c-8.028,0.014 -16.028,-0.112 -24.111,0.125c-10.613,0.312 -13.673,15.343 -3.653,19.021c4.436,1.628 11.354,1.075 16.264,1.038l30.201,-0.218c15.784,-0.107 37.476,-2.63 40.15,18.489c2.011,15.882 -5.36,25.253 -21.29,26.959c-6.283,0.671 -22.012,0.236 -29.082,0.223l-55.182,0.027l-0.004,-12.62l50.865,0.034c11.081,0.05 22.907,0.868 33.74,-0.955c9.722,-1.17 9.532,-17.31 -0.171,-18.858c-13.941,-2.223 -29.246,-0.243 -43.439,-0.681c-13.639,-0.253 -37.461,2.864 -41.387,-15.215c-3.307,-15.226 3.459,-26.485 19.046,-29.647z" fill="#EBEBEB"/>
  <path id="svg_31" d="m473.535,755.936c0.419,-0.012 0.837,-0.021 1.256,-0.024l51.862,-0.038c9.989,-0.006 24.199,-1.19 33.711,1.06c3.246,0.768 6.301,2.658 8.602,5.048c4.475,4.646 6.396,11.158 6.164,17.515c-0.265,7.246 -3.387,14.592 -9.994,18.179c-16.346,8.876 -65.673,-3.016 -75.318,6.837c-3.664,3.743 -2.483,12.029 -2.335,16.918l87.847,0.066l-0.206,12.417c-7.281,0.634 -25.068,0.104 -33.372,0.104l-68.248,0.001c-0.133,-7.148 -0.595,-14.535 -0.066,-21.658c0.454,-6.102 1.989,-13.558 6.601,-17.926c14.359,-13.598 68.531,0.294 78.662,-9.079c1.754,-1.623 2.406,-3.755 2.508,-6.091c0.129,-2.952 -0.728,-6.129 -2.852,-8.266c-1.667,-1.676 -3.554,-1.994 -5.807,-2.292c-9.427,-1.25 -19.795,-0.307 -29.336,-0.255l-49.658,-0.027l-0.021,-12.489z" fill="#EBEBEB"/>
  <path id="svg_32" d="m221.006,755.959l55.851,-0.063c11.636,-0.018 23.638,-0.491 35.161,1.065c10.352,1.397 16.059,11.07 16.422,20.868c1.095,29.629 -29.436,24.923 -49.542,24.767l-43.364,-0.112l-0.054,31.347c-2.971,0.412 -10.975,0.196 -14.323,0.19l-0.103,-43.535l50.59,0.034c8.064,0.021 31.921,1.483 38.995,-2.981c5.313,-3.353 5.334,-17.872 -5.375,-18.687c-9.135,-0.695 -18.577,-0.452 -28.197,-0.44l-55.959,0.067l-0.102,-12.52z" fill="#EBEBEB"/>
  <path id="svg_33" d="m628.542,755.728c19.985,-0.583 42.438,0.032 62.485,0.239l-0.005,12.485l-44.105,-0.023c-6.597,-0.001 -25.225,-0.998 -30.19,2.294c-7.525,4.989 -7.032,40.952 -1.752,46.963c5.025,5.718 30.607,3.837 39.275,3.789l36.87,0.019l-0.064,12.473l-44.902,0.099c-12.37,0.031 -32.661,1.897 -42.386,-6.812c-8.268,-8.13 -6.059,-21.707 -6.372,-32.254c-0.317,-10.689 -0.98,-23.814 6.869,-31.988c6.707,-6.984 15.463,-7.06 24.277,-7.284z" fill="#EBEBEB"/>
  <path id="svg_34" d="m390.105,633.749c-67.09,-67.167 -67.197,-175.952 -0.239,-243.251c66.958,-67.299 175.741,-67.746 243.249,-0.998c67.807,67.042 68.256,176.413 1.002,244.01c-67.254,67.596 -176.625,67.704 -244.012,0.239z" fill="#898889"/>
  <path id="svg_35" d="m508.106,351.225c88.771,-2.17 162.503,68.014 164.71,156.783c2.208,88.77 -67.945,162.532 -156.713,164.777c-88.823,2.247 -162.638,-67.957 -164.847,-156.78c-2.209,-88.823 68.026,-162.609 156.85,-164.78z" fill="#0D0D0D"/>
  <path id="svg_36" d="m405.965,615.542c-56.708,-58.085 -56.148,-150.978 1.257,-208.375c57.404,-57.398 150.297,-57.946 208.375,-1.23c38.191,37.295 53.379,92.244 39.766,143.858c-13.614,51.615 -53.928,91.924 -105.545,105.531c-51.616,13.607 -106.563,-1.589 -143.853,-39.784z" fill="#7f7f7f"/>
  <path id="svg_37" d="m615.597,405.937c38.191,37.295 53.379,92.244 39.766,143.858c-13.614,51.615 -53.928,91.924 -105.545,105.531c-51.616,13.607 -106.563,-1.589 -143.853,-39.784c1.769,-0.79 10.246,-8.575 11.9,-10.08c24.737,24.25 56.058,38.461 90.903,39.142c35.513,0.932 69.908,-12.461 95.441,-37.162c25.106,-24.195 39.634,-57.332 40.418,-92.19c0.752,-38.242 -12.846,-70.109 -39.117,-97.47c3.397,-3.919 6.759,-7.867 10.087,-11.845z" fill="#B3B3B3"/>
  <path id="svg_38" d="m405.965,615.542c-56.708,-58.085 -56.148,-150.978 1.257,-208.375c57.404,-57.398 150.297,-57.946 208.375,-1.23c-3.328,3.978 -6.69,7.926 -10.087,11.845c-28.336,-26.473 -59.848,-39.668 -99.015,-38.337c-34.955,1.413 -67.925,16.617 -91.696,42.283c-24.2,26.01 -36.921,60.661 -35.299,96.151c1.296,34.165 15.137,63.039 38.365,87.583c-1.654,1.505 -10.131,9.29 -11.9,10.08z" fill="#EBEBEB"/>
  <path id="svg_39" d="m502.409,391.746c66.459,-5.368 124.68,44.17 130.022,110.63c5.342,66.461 -44.219,124.662 -110.681,129.979c-66.427,5.313 -124.589,-44.215 -129.928,-110.639c-5.339,-66.424 44.165,-124.605 110.587,-129.97z" fill="#EBEBEB"/>
  <path id="svg_40" d="m505.31,445.21c36.959,-3.729 69.909,23.29 73.494,60.263c3.585,36.973 -23.562,69.819 -60.549,73.26c-36.784,3.422 -69.41,-23.544 -72.975,-60.314c-3.565,-36.771 23.274,-69.502 60.03,-73.209z" fill="#B3B3B3"/>
  <path id="svg_41" d="m506.484,463.234c26.912,-3.065 51.222,16.243 54.329,43.15c3.107,26.908 -16.162,51.248 -43.064,54.398c-26.963,3.157 -51.37,-16.165 -54.485,-43.133c-3.114,-26.967 16.247,-51.344 43.22,-54.415z" fill="#EBEBEB"/>
  <path id="svg_42" d="m805.649,614.284c1.345,-3.151 3.948,-8.076 7.275,-9.05c9.416,-2.755 13.717,15.343 4.936,18c-3.195,0.967 -7.999,-1.58 -10.478,-3.82c-46.159,17.808 -75.038,39.446 -107.458,76.561l-7.061,0.017c4.219,-5.997 10.348,-12.32 15.361,-17.693c28.775,-30.839 59.218,-47.68 97.425,-64.015z" fill="#888CBE"/>
  <path id="svg_43" d="m997.273,623.268c-34.219,-16.061 -67.933,-22.455 -105.494,-21.832c-5.018,0.052 -10.032,0.28 -15.033,0.683c-4.641,0.417 -12.504,2.497 -16.164,-1.007c0.566,-1.406 0.423,-1.589 2.213,-2.242c6.094,-2.224 16.804,-2.56 23.36,-2.809c30.511,-1.447 61.016,2.961 89.869,12.985c7.533,2.602 14.886,6.066 22.355,8.874c-0.311,1.784 -0.577,3.625 -1.106,5.348z" fill="#888CBE"/>
  <path id="svg_44" d="m873.809,397.116c1.778,2.754 9.155,30.649 10.687,36.082c9.609,34.098 18.244,68.737 28.084,102.762c-15.633,4.868 -34.456,9.498 -50.575,13.897c-30.352,8.228 -60.65,16.655 -90.891,25.282c-0.135,-0.043 -0.277,-0.065 -0.404,-0.128c-2.662,-1.309 -35.175,-126.026 -38.592,-138.634l79.917,-22.056c20.495,-5.601 41.517,-10.944 61.774,-17.205z" fill="#7F4B90"/>
  <path id="svg_45" d="m870.318,401.027c0.562,-0.075 1.013,0.043 1.604,0.118c1.891,2.25 10.836,37.27 12.152,42.079l24.88,90.848c-43.964,12.868 -90.064,24.902 -134.349,37.043c-1.217,0.392 -0.769,0.33 -2.022,0.246c-2.321,-2.426 -2.799,-7.443 -3.682,-10.656l-8.331,-29.658l-24.962,-92.727c13.027,-4.217 29.906,-8.335 43.438,-12.057l91.272,-25.236z" fill="#B483B5"/>
  <path id="svg_46" d="m862.562,416.082l0.439,0.155c1.803,2.81 8.641,28.992 10.064,34.198l20.325,74.899c-9.361,3.407 -27.977,8.055 -38.191,10.848c-24.393,6.545 -48.752,13.213 -73.077,20.002c-0.139,-0.045 -0.286,-0.068 -0.416,-0.134c-2.547,-1.288 -27.803,-97.907 -30.678,-109.24c14.016,-3.449 27.93,-7.558 41.848,-11.416l69.686,-19.312z" fill="#7F4B90"/>
  <path id="svg_47" d="m860.277,419.532l0.752,0.153c1.63,1.465 7.451,24.875 8.698,29.386c6.832,24.718 12.896,49.58 20.413,74.12c-12.832,4.299 -27.91,8.046 -41.035,11.629l-64.938,18.014l-0.477,0.038c-1.97,-1.434 -9.372,-30.18 -10.539,-34.438c-6.233,-23.204 -12.598,-46.373 -19.095,-69.505l106.221,-29.397z" fill="#B3B3B3"/>
  <path id="svg_48" d="m852.895,297.254c2.067,-0.463 4.223,0.226 5.639,1.802c1.416,1.576 1.871,3.793 1.19,5.8c-0.681,2.006 -2.392,3.488 -4.474,3.876c-3.141,0.586 -6.173,-1.452 -6.815,-4.582c-0.642,-3.13 1.342,-6.198 4.46,-6.896z" fill="#888CBE"/>
  <path id="svg_49" d="m198.934,897.691l1.628,0.229c6.426,0.512 16.495,0.198 23.332,0.199l42.702,-0.002l135.007,-0.035l424.689,0.021c-17.37,12.774 -28.703,22.135 -47.753,34.253c-110.973,70.784 -245.574,94.424 -374.028,65.713c-66.845,-15.008 -129.94,-43.451 -185.453,-83.599c-2.525,-1.843 -19.719,-14.353 -20.763,-15.997l0.639,-0.782z" fill="#B3B3B3"/>
 </g>
</svg>